<svg xmlns="http://www.w3.org/2000/svg" width="375" height="74"><g transform="matrix(0.8908657847536283,0,0,0.8908657847536283,-7.839619075751093,-7.839619075751093)" fill="#000000"><g xmlns="http://www.w3.org/2000/svg"><path d="M50,8.8C27.3,8.8,8.8,27.3,8.8,50S27.3,91.2,50,91.2S91.2,72.7,91.2,50S72.7,8.8,50,8.8z M50,88.8   c-21.4,0-38.8-17.4-38.8-38.8S28.6,11.2,50,11.2S88.8,28.6,88.8,50S71.4,88.8,50,88.8z"/><path d="M50.1,32.6c-4.6,0-8.9,1.8-12.2,5.1c-6.7,6.7-6.7,17.7,0,24.4c3.3,3.3,7.6,5.1,12.2,5.1s8.9-1.8,12.2-5.1   c6.7-6.7,6.7-17.7,0-24.4C59,34.4,54.7,32.6,50.1,32.6z M60.5,60.3c-2.8,2.8-6.5,4.3-10.4,4.3s-7.6-1.5-10.4-4.3   c-5.8-5.8-5.8-15.1,0-20.9c2.8-2.8,6.5-4.3,10.4-4.3s7.6,1.5,10.4,4.3C66.3,45.2,66.3,54.6,60.5,60.3z"/><path d="M73.6,25.6c-1.9-1.9-5-1.9-6.9,0l-4.1,4.1c-3.7-2.3-8-3.5-12.5-3.5c-6.3,0-12.3,2.5-16.8,7s-7,10.4-7,16.8s2.5,12.3,7,16.8   s10.4,7,16.8,7s12.3-2.5,16.8-7s7-10.5,7-16.8c0-4.5-1.2-8.8-3.5-12.5l4.1-4.1c0.9-0.9,1.4-2.1,1.4-3.4s-0.5-2.5-1.4-3.4L73.6,25.6   z M65.1,64.9c-4,4-9.4,6.2-15,6.2s-11-2.2-15-6.2s-6.2-9.4-6.2-15c0-5.7,2.2-11,6.2-15s9.3-6.2,15-6.2s11,2.2,15,6.2   s6.2,9.4,6.2,15C71.4,55.6,69.2,60.9,65.1,64.9z M72.7,31.5l-3.8,3.8c-0.6-0.8-1.3-1.5-2-2.2s-1.4-1.4-2.2-2l3.8-3.8   c0.9-0.9,2.4-0.9,3.3,0l0.8,0.8c0.4,0.4,0.7,1,0.7,1.7S73.1,31.1,72.7,31.5z"/></g></g><g transform="matrix(3.3311908990696897,0,0,3.3311908990696897,96.53427501957927,-12.25492301356812)" fill="#000000"><path d="M3.26 13.04 l-2.2 -1.26 c1.1 -1.24 2.58 -1.82 4.12 -1.82 c2.96 0 4.16 1.62 4.16 3.14 l0 6.9 l-2.96 0 l0 -0.7 c-0.46 0.48 -1.28 0.84 -2.2 0.84 c-2.7 0 -3.74 -1.2 -3.74 -3.04 c0 -2.08 1.68 -3.48 4.4 -3.48 l1.54 0 c0 -0.74 -0.56 -1.22 -1.4 -1.22 c-0.86 0 -1.28 0.16 -1.72 0.64 z M6.38 16.740000000000002 l0 -0.88 l-1.74 0 c-0.78 0 -1.36 0.54 -1.24 1.3 c0.08 0.54 0.56 0.76 1.24 0.76 c1.3 0 1.74 -0.74 1.74 -1.18 z M14.783895833333332 7.279999999999999 c0 0.84 -0.68 1.5 -1.56 1.5 s-1.58 -0.66 -1.58 -1.5 c0 -0.82 0.7 -1.46 1.58 -1.46 s1.56 0.64 1.56 1.46 z M9.163895833333331 23.06 l0 -2.68 c0.48 0.32 0.64 0.48 1.46 0.48 c0.34 0 1.08 -0.2 1.08 -1.58 l0 -9.16 l2.96 0 l0 9.16 c0 3.2 -1.1 4.38 -2.98 4.38 c-1.08 0 -1.16 0 -2.52 -0.6 z M15.987791666666665 15.08 c0 -2.92 1.92 -5.1 4.82 -5.1 c0.64 0 1.9 0.34 2.24 0.82 l0 -5.32 l2.98 0 l0 14.52 l-2.98 0 l0 -0.66 c-0.36 0.46 -1.38 0.82 -2.04 0.82 c-2.9 0 -5.02 -2.16 -5.02 -5.08 z M18.967791666666663 15.08 c0 1.56 1 2.84 2.24 2.84 c1.36 0 2.24 -1.52 2.24 -2.84 s-0.86 -2.86 -2.24 -2.86 c-1.24 0 -2.24 1.28 -2.24 2.86 z M27.551687499999996 15.76 l0 -5.64 l2.96 0 l0 5.64 c0 1.52 0.42 2.16 1.56 2.16 c1.2 0 1.9 -0.64 1.9 -2.16 l0 -5.64 l2.96 0 l0 9.88 l-2.96 0 l0 -0.9 c-0.56 0.7 -1.78 1.06 -2.64 1.06 c-2.78 0 -3.78 -1.32 -3.78 -4.4 z M45.25558333333333 10.26 l-0.4 2.22 c-0.74 -0.32 -0.88 -0.26 -1.22 -0.26 c-1.2 0 -1.9 0.64 -1.9 2.22 l0 5.56 l-2.96 0 l0 -9.88 l2.96 0 l0 0.88 c0.38 -0.68 1.42 -1.02 2.08 -1.02 c0.62 0 0.98 0.02 1.44 0.28 z M47.97947916666666 13.04 l-2.2 -1.26 c1.1 -1.24 2.58 -1.82 4.12 -1.82 c2.96 0 4.16 1.62 4.16 3.14 l0 6.9 l-2.96 0 l0 -0.7 c-0.46 0.48 -1.28 0.84 -2.2 0.84 c-2.7 0 -3.74 -1.2 -3.74 -3.04 c0 -2.08 1.68 -3.48 4.4 -3.48 l1.54 0 c0 -0.74 -0.56 -1.22 -1.4 -1.22 c-0.86 0 -1.28 0.16 -1.72 0.64 z M51.09947916666666 16.740000000000002 l0 -0.88 l-1.74 0 c-0.78 0 -1.36 0.54 -1.24 1.3 c0.08 0.54 0.56 0.76 1.24 0.76 c1.3 0 1.74 -0.74 1.74 -1.18 z M65.06337499999998 14.36 l0 5.64 l-2.96 0 l0 -5.64 c0 -1.5 -0.4 -2.16 -1.56 -2.16 c-1.2 0 -1.9 0.66 -1.9 2.16 l0 5.64 l-2.96 0 l0 -9.88 l2.96 0 l0 0.94 c0.76 -0.74 1.8 -1.08 2.66 -1.08 c2.78 0 3.76 1.34 3.76 4.38 z M73.56727083333332 16.46 l2.08 1.88 c-1.12 1.24 -2.58 1.82 -4.14 1.82 c-2.88 0 -5.2 -2.16 -5.2 -5.08 s2.32 -5.1 5.2 -5.1 c1.56 0 3.02 0.58 4.14 1.82 l-2.08 1.88 c-0.44 -1.02 -1.4 -1.26 -2.06 -1.26 c-1.22 0 -2.24 1.08 -2.24 2.66 c0 1.56 1.02 2.64 2.24 2.64 c0.66 0 1.64 -0.18 2.06 -1.26 z M83.47116666666665 10.26 l-0.4 2.22 c-0.74 -0.32 -0.88 -0.26 -1.22 -0.26 c-1.2 0 -1.9 0.64 -1.9 2.22 l0 5.56 l-2.96 0 l0 -9.88 l2.96 0 l0 0.88 c0.38 -0.68 1.42 -1.02 2.08 -1.02 c0.62 0 0.98 0.02 1.44 0.28 z"/></g></svg>